<svg height="512" viewBox="0 0 64 64" width="512" xmlns="http://www.w3.org/2000/svg"><path d="M57 62H7a5 5 0 01-5-5V34h60v23a5 5 0 01-5 5z" fill="#4472b0"/><path d="M10 34h8v12h-8zm36 0h8v12h-8z" fill="#cfd3d9"/><path d="M10 41h8v2h-8zm36 0h8v2h-8z" fill="#88929f"/><path d="M27 34h10v6H27z" fill="#cfd3d9"/><path d="M4 34V10a4 4 0 014-4h48a4 4 0 014 4v24z" fill="#2d4d81"/><path d="M27 2h10v4H27z" fill="#cfd3d9"/><path d="M8 10h48v24H8z" fill="#ebf7fe"/><path d="M52 21.349a5.996 5.996 0 00-4-5.651v5.651l-2 2-2-2v-5.651c-2.329.825-4 3.04-4 5.651s1.671 4.827 4 5.651v7h4v-7c2.329-.825 4-3.04 4-5.651zm-28 0a5.996 5.996 0 00-4-5.651v5.651l-2 2-2-2v-5.651c-2.329.825-4 3.04-4 5.651s1.671 4.827 4 5.651v7h4v-7c2.329-.825 4-3.04 4-5.651zM34 29v-7l1-2v-4h-6v4l1 2v7z" fill="#88929f"/><path d="M28 29h8v5h-8z" fill="#f5b95b"/></svg>