<svg xmlns="http://www.w3.org/2000/svg" viewBox="0 0 464.46 76.25"><title>champion_logo</title><g id="Layer_2" data-name="Layer 2"><g id="Слой_1" data-name="Слой 1"><path d="M89.87,38.72H98.2l5.44-13.37c.17-.43.21-.71.12-.85a2.5,2.5,0,0,0-1-.53c-.66-.22-.83-.71-.51-1.5a5.44,5.44,0,0,1,1-1.82,2.69,2.69,0,0,1,1.61-.33h22.82c1,0,1.6.09,1.73.28s0,.79-.42,1.81c-.25.62-.51,1-.79,1.1a21.59,21.59,0,0,1-2.39.62q-2.17.53-2.62,1.65L110.23,57.57c-.34.83.14,1.49,1.45,2,1.07.39,1.54.74,1.42,1.05l-.68,1.67a1.2,1.2,0,0,1-.6.7,6.15,6.15,0,0,1-1.9.17H87c-.77,0-1.21-.07-1.33-.21s.06-.79.53-2a2.84,2.84,0,0,1,1.92-1.38c1.2-.39,1.9-.84,2.11-1.35L97,41.71H88.66l-6.8,16.72q-.35.85.8,1.35t.72,1.55a3.47,3.47,0,0,1-1,1.61,3.16,3.16,0,0,1-1.35.21H57.89c-.74,0-1.17-.08-1.28-.24s.05-.78.5-1.88a2.19,2.19,0,0,1,.68-1,7.18,7.18,0,0,1,1.73-.58c1.65-.39,2.61-.91,2.88-1.56l13-32.08c.21-.52-.26-1-1.41-1.46s-1.53-1.16-1.17-2.05A3.22,3.22,0,0,1,74,20.6a5.17,5.17,0,0,1,2.1-.28H97.79a4.36,4.36,0,0,1,1.85.25c.28.17.3.56,0,1.18L99.18,23a2.86,2.86,0,0,1-1.64.85,3,3,0,0,0-2.23,1.49Z" style="fill:#fc0"/><path d="M145.45,54H132.3l-1.6,2.42a.94.94,0,0,1-.21.24,4.54,4.54,0,0,0-1,1.37q-.39,1,1.81,1.62c.78.23,1.22.47,1.33.72a1.75,1.75,0,0,1-.18,1.23,3.31,3.31,0,0,1-.77,1.32,2.34,2.34,0,0,1-1.23.23H116.54c-.77,0-1-.41-.66-1.23a4.72,4.72,0,0,1,2.83-2.37,6,6,0,0,0,2.74-1.75l22.5-31.21a5.83,5.83,0,0,0,.77-1.25c.22-.55-.35-1-1.7-1.47-.63-.21-.8-.69-.5-1.42a4.63,4.63,0,0,1,1.05-1.81,3.3,3.3,0,0,1,1.83-.35h20.14c1.24,0,2,.29,2.23.88a8.62,8.62,0,0,1-.09,3.84c-.1.76-.19,1.51-.28,2.25l-3.21,29.14a3.08,3.08,0,0,0,1.72,3.23,2.33,2.33,0,0,1,.68.46c.09.12,0,.47-.22,1.05a3.7,3.7,0,0,1-1,1.66,3.4,3.4,0,0,1-1.7.31h-23.3c-.7,0-.91-.33-.64-1a4.45,4.45,0,0,1,.91-1.6,6.21,6.21,0,0,1,1.82-.75c1.37-.39,2.19-.88,2.43-1.48a18.19,18.19,0,0,0,.6-4.3m3.27-23.58L134.43,51h11.67Z" style="fill:#fc0"/><path d="M225.54,20.32h18.77a5.93,5.93,0,0,1,2.38.28c.31.18.32.66,0,1.41a3.21,3.21,0,0,1-1,1.45,7,7,0,0,1-2.29.78,6.06,6.06,0,0,0-2.06.69,2.69,2.69,0,0,0-.88,1.22L227.66,57.66c-.19.46-.22.8-.09,1s.64.43,1.52.66c1.21.32,1.69.75,1.47,1.3a6.89,6.89,0,0,1-1.2,2.3,4.7,4.7,0,0,1-1.94.23H203.81c-1,0-1.36-.44-1-1.3a9.19,9.19,0,0,1,.84-1.66c.25-.36,1-.66,2.31-.89,1.45-.26,2.31-.73,2.58-1.41l9.08-22.35-16.8,18H195l-2.2-17.47L184,57.82c-.29.71.13,1.23,1.26,1.57,1.39.39,1.88,1.08,1.47,2.07a2.89,2.89,0,0,1-3,1.7H172.31q-1.94,0-1.29-1.62a3.46,3.46,0,0,1,2.34-1.75,9.24,9.24,0,0,0,1.85-.81A2.35,2.35,0,0,0,176,57.9l12.47-30.66a3.42,3.42,0,0,0,.34-2c-.11-.45-.61-.82-1.47-1.1s-1.35-.58-1.22-.87l.51-1.14a4.23,4.23,0,0,1,1-1.55,2.72,2.72,0,0,1,1.52-.3h19.47l1.75,16.39Z" style="fill:#fc0"/><path d="M264.65,48.57h0l-3.59,8.82c-.42,1,.18,1.7,1.8,2a2.71,2.71,0,0,1,1.49.65c.22.27.18.79-.12,1.53a2.14,2.14,0,0,1-1.12,1.32,8,8,0,0,1-2.42.25H236.82q-1.9,0-1.22-1.68a4.28,4.28,0,0,1,.93-1.63,5.08,5.08,0,0,1,2-.55,6.32,6.32,0,0,0,1.91-.47,1.65,1.65,0,0,0,.69-.86l13.05-32.11c.31-.76-.36-1.37-2-1.83-.87-.26-1.21-.66-1-1.2l.45-1.22a1.88,1.88,0,0,1,.81-1,4.72,4.72,0,0,1,1.86-.25H281.2q11.6,0,17,3.75t2.69,10.39A17.71,17.71,0,0,1,296,41.14a22.24,22.24,0,0,1-7.1,4.3,54.77,54.77,0,0,1-8.38,2.26,49.75,49.75,0,0,1-9.36.87Zm10.29-25.31-9.05,22.26h3.62a7.72,7.72,0,0,0,3.77-1.05,6.66,6.66,0,0,0,2.9-3.49l5.39-13.25q1.81-4.46-4-4.46Z" style="fill:#fc0"/><path d="M309.56,22.54l.57-1.4c.22-.54.91-.82,2.08-.82h25.3a4.93,4.93,0,0,1,1.78.19c.22.13.21.5,0,1.11a4.78,4.78,0,0,1-1,1.76,2.72,2.72,0,0,1-1.47.42q-3.4.29-4.13,2.1l-13,32c-.27.68.31,1.2,1.73,1.6a3.55,3.55,0,0,1,1.58.65c.14.19.1.52-.08,1l-.41,1c-.23.56-.46.87-.7.94a7.93,7.93,0,0,1-1.68.1H294.31c-1,0-1.4-.2-1.24-.59a8.61,8.61,0,0,1,1.21-2.34,4.26,4.26,0,0,1,2.13-.66q3-.4,3.47-1.51l12.81-31.51a2.06,2.06,0,0,0,.16-1.69q-.29-.57-1.94-.95a3.45,3.45,0,0,1-1.4-.51c-.14-.15-.11-.43.06-.85" style="fill:#fc0"/><path d="M370.74,19.61h0q7.72,0,12.32,2.62a13.12,13.12,0,0,1,6.21,7.44q1.62,4.83-1.46,12.4-3.69,9.08-13.21,15.33a39.52,39.52,0,0,1-22.2,6.25q-12,0-16.51-6.11t-.53-15.76a33.86,33.86,0,0,1,13.64-16,39.55,39.55,0,0,1,21.73-6.14m1.57,6.31q1.35-3.32-2.9-3.32a7.3,7.3,0,0,0-3.37.82,4.16,4.16,0,0,0-2.08,2l-13,32a2,2,0,0,0,.26,2.45,3.78,3.78,0,0,0,2.65.84,6.72,6.72,0,0,0,3.5-.93,4.59,4.59,0,0,0,2-2.07Z" style="fill:#fc0"/><path d="M66.82,0h3.72c.86,0,1.41.21,1.66.63s.08,1.52-.51,3.33l-4.77,14.8a6.75,6.75,0,0,1-.31.88,4.54,4.54,0,0,1-1.84,2.25,8,8,0,0,1-3.74.64c-2.12,0-3.43-.35-4-1.06s-.58-2.38-.21-5q1.47-10-3.88-10-4.43,0-7.56,7.22L23,65.35q-2.23,5.15,2.44,5.15,6,0,10.39-8.59a8,8,0,0,1,3-3.44q1.72-1,5.74-1c2,0,3.31.24,3.89.71s.58,1.4,0,2.78Q45.6,67.56,37.57,71.9a35.56,35.56,0,0,1-17.19,4.34q-8.88,0-14-3.63T.16,60.09q-1.05-8.89,5-22.77Q10.8,24.22,18.3,16.39A60.44,60.44,0,0,1,34.05,4.29,36.4,36.4,0,0,1,50.81,0,15.93,15.93,0,0,1,59,1.79a4.15,4.15,0,0,0,1.86.64,7.37,7.37,0,0,0,3-1.28,6.29,6.29,0,0,1,3-1.15" style="fill:#fc0"/><path d="M407.85,38.89l-7.6,18.71c-.31.78.33,1.36,1.93,1.75,1.34.34,1.9.82,1.64,1.44a8.29,8.29,0,0,1-1.07,2.17,3.57,3.57,0,0,1-1.63.21h-14c-.71,0-1.08-.13-1.14-.41a4.87,4.87,0,0,1,.56-2c.2-.5.81-.84,1.83-1,2-.41,3.05-.87,3.26-1.38l12.74-31.35a2.81,2.81,0,0,0,.29-1.71c-.13-.38-.61-.7-1.48-.95a2.86,2.86,0,0,1-1.44-.69c-.2-.25-.14-.72.13-1.42a2.71,2.71,0,0,1,2.68-1.87H419l9.38,20.93,6.28-15.45c.35-.86-.26-1.48-1.82-1.83-.93-.23-1.47-.5-1.65-.79s-.09-.87.25-1.72a1.69,1.69,0,0,1,.71-1,3.34,3.34,0,0,1,1.28-.17H448q1.18.07.51,1.74a3.25,3.25,0,0,1-.74,1.24,3.4,3.4,0,0,1-1.27.45,10,10,0,0,0-2.61.72,1.93,1.93,0,0,0-.86,1L427.72,63.16h-9Z" style="fill:#fc0"/><path d="M462.71,21.68h0a5.77,5.77,0,0,0-4.29-1.82,5.86,5.86,0,0,0-4.34,1.83,6.11,6.11,0,0,0-1.81,4.38A6,6,0,0,0,454,30.48a5.77,5.77,0,0,0,4.3,1.82,5.84,5.84,0,0,0,4.33-1.83,6.13,6.13,0,0,0,1.81-4.4,6,6,0,0,0-1.75-4.39m-1.08,7.78h0a4.47,4.47,0,0,1-3.31,1.4,4.42,4.42,0,0,1-3.3-1.39,4.92,4.92,0,0,1,.05-6.79,4.48,4.48,0,0,1,3.32-1.39,4.4,4.4,0,0,1,3.29,1.39A4.62,4.62,0,0,1,463,26.07,4.72,4.72,0,0,1,461.63,29.47ZM461.31,28h0a.86.86,0,0,1-.5-.14,2.25,2.25,0,0,1-.44-.5l-.86-1.23a1.81,1.81,0,0,0,1-.45,1.24,1.24,0,0,0,.41-.95,1.32,1.32,0,0,0-.7-1.3,3.71,3.71,0,0,0-1.63-.27h-2.82v.66c.3,0,.49.06.57.18a.77.77,0,0,1,.08.43l0,2.93a.66.66,0,0,1-.16.5.76.76,0,0,1-.5.14v.66h2.62V28a.68.68,0,0,1-.57-.19.84.84,0,0,1-.08-.45V26.34h.4l1.55,2.37h1.68ZM459,25.48a3.55,3.55,0,0,1-1,.1h-.32V24.42a.47.47,0,0,1,.11-.37.55.55,0,0,1,.36-.09,2.17,2.17,0,0,1,1,.17.66.66,0,0,1,.33.65A.68.68,0,0,1,459,25.48Z" style="fill:#fc0"/></g></g></svg>