<svg id="Layer_3" enable-background="new 0 0 64 64" height="512" viewBox="0 0 64 64" width="512" xmlns="http://www.w3.org/2000/svg"><g><path d="m57 62h-50c-2.761 0-5-2.239-5-5v-23h60v23c0 2.761-2.239 5-5 5z" fill="#4472b0"/><path d="m10 34h8v12h-8z" fill="#cfd3d9"/><path d="m46 34h8v12h-8z" fill="#cfd3d9"/><g><path d="m10 41h8v2h-8z" fill="#88929f"/></g><g><path d="m46 41h8v2h-8z" fill="#88929f"/></g><path d="m27 34h10v6h-10z" fill="#cfd3d9"/><path d="m4 34v-24c0-2.209 1.791-4 4-4h48c2.209 0 4 1.791 4 4v24z" fill="#2d4d81"/><path d="m27 2h10v4h-10z" fill="#cfd3d9"/><path d="m8 10h48v24h-48z" fill="#ebf7fe"/><g fill="#88929f"><path d="m52 21.349c0-2.611-1.671-4.827-4-5.651v5.651l-2 2-2-2v-5.651c-2.329.825-4 3.04-4 5.651s1.671 4.827 4 5.651v7h4v-7c2.329-.825 4-3.04 4-5.651z"/><path d="m24 21.349c0-2.611-1.671-4.827-4-5.651v5.651l-2 2-2-2v-5.651c-2.329.825-4 3.04-4 5.651s1.671 4.827 4 5.651v7h4v-7c2.329-.825 4-3.04 4-5.651z"/><path d="m34 29v-7l1-2v-4h-6v4l1 2v7z"/></g><path d="m28 29h8v5h-8z" fill="#f5b95b"/></g></svg>