<?xml version="1.0" encoding="utf-8"?><svg viewBox="0 0 21.33 32" xmlns="http://www.w3.org/2000/svg" xmlns:xlink="http://www.w3.org/1999/xlink"><style>:root>svg{display:none}:root>svg:target{display:block}</style><svg viewBox="0 0 21.33 32" id="arrow-right"><path d="M0 28.29A3.87 3.87 0 004 32a4.22 4.22 0 002.29-.67s.47-.4 1.24-1.09L20.71 18a3.46 3.46 0 00.62-2 3.4 3.4 0 00-.44-1.68L6.16.59A4.16 4.16 0 004 0a3.82 3.82 0 00-4 3.66 3.33 3.33 0 00.5 1.68.46.46 0 00.13.18L11.88 16 .37 26.72A3.58 3.58 0 000 28.29z"/></svg><svg fill="currentColor" class="bbi bbi-cart2" viewBox="0 0 16 16" id="cart" xmlns="http://www.w3.org/2000/svg"><path d="M0 2.5A.5.5 0 01.5 2H2a.5.5 0 01.485.379L2.89 4H14.5a.5.5 0 01.485.621l-1.5 6A.5.5 0 0113 11H4a.5.5 0 01-.485-.379L1.61 3H.5a.5.5 0 01-.5-.5zM3.14 5l1.25 5h8.22l1.25-5H3.14zM5 13a1 1 0 100 2 1 1 0 000-2zm-2 1a2 2 0 114 0 2 2 0 01-4 0zm9-1a1 1 0 100 2 1 1 0 000-2zm-2 1a2 2 0 114 0 2 2 0 01-4 0z"/></svg><svg class="cbi cbi-person-fill" viewBox="0 0 16 16" id="person-fill" xmlns="http://www.w3.org/2000/svg"><path d="M3 14s-1 0-1-1 1-4 6-4 6 3 6 4-1 1-1 1H3zm5-6a3 3 0 100-6 3 3 0 000 6z"/></svg><svg fill="currentColor" class="dbi dbi-search" viewBox="0 0 16 16" id="search" xmlns="http://www.w3.org/2000/svg"><path d="M11.742 10.344a6.5 6.5 0 10-1.397 1.398h-.001c.03.04.062.078.098.115l3.85 3.85a1 1 0 001.415-1.414l-3.85-3.85a1.007 1.007 0 00-.115-.1zM12 6.5a5.5 5.5 0 11-11 0 5.5 5.5 0 0111 0z"/></svg><svg class="ebi ebi-telephone-fill" viewBox="0 0 16 16" id="telephone-fill" xmlns="http://www.w3.org/2000/svg"><path fill-rule="evenodd" d="M1.885.511a1.745 1.745 0 012.61.163L6.29 2.98c.329.423.445.974.315 1.494l-.547 2.19a.678.678 0 00.178.643l2.457 2.457a.678.678 0 00.644.178l2.189-.547a1.745 1.745 0 011.494.315l2.306 1.794c.829.645.905 1.87.163 2.611l-1.034 1.034c-.74.74-1.846 1.065-2.877.702a18.634 18.634 0 01-7.01-4.42 18.634 18.634 0 01-4.42-7.009c-.362-1.03-.037-2.137.703-2.877L1.885.511z"/></svg></svg>