<?xml version="1.0" encoding="iso-8859-1"?><svg viewBox="0 0 512 512" xmlns="http://www.w3.org/2000/svg" xmlns:xlink="http://www.w3.org/1999/xlink"><style>:root>svg{display:none}:root>svg:target{display:block}</style><svg viewBox="0 0 480 480" id="24-hours" xmlns="http://www.w3.org/2000/svg"><path d="M472 432h-24V280a8 8 0 00-14.552-4.584l-112 160A7.999 7.999 0 00328 448h104v24a8 8 0 0016 0v-24h24a8 8 0 000-16zm-40 0h-88.64L432 305.376V432z"/><path d="M328 464h-94.712l88.056-103.688c.2-.238.387-.486.56-.744 16.566-24.518 11.048-57.713-12.56-75.552-28.705-20.625-68.695-14.074-89.319 14.631A63.997 63.997 0 00208 336a8 8 0 0016 0c-.003-26.51 21.486-48.002 47.995-48.005A47.999 47.999 0 01300 297.008c16.537 12.671 20.388 36.007 8.8 53.32l-98.896 116.496A8 8 0 00216 480h112a8 8 0 000-16z"/><path d="M216.176 424.152a8 8 0 00-7.693-8.296h-.003C104.11 411.982 20.341 328.363 16.28 224H48a8 8 0 000-16H16.28C20.283 103.821 103.82 20.287 208 16.288V40a8 8 0 0016 0V16.288c102.754 3.974 185.686 85.34 191.616 188l-31.2-31.2a8 8 0 00-11.312 11.312l44.656 44.656a7.863 7.863 0 003.152 2.296c.313.094.631.172.952.232a7.914 7.914 0 001.696.408h.456a7.708 7.708 0 001.792-.352c.329-.04.655-.101.976-.184a7.88 7.88 0 002.888-1.808l45.264-45.248a8 8 0 00-11.312-11.312l-31.976 31.952C425.933 90.37 331.38.281 216.568.112 216.368.104 216.2 0 216 0s-.368.104-.568.112C96.582.275.275 96.582.112 215.432c0 .2-.112.368-.112.568s.104.368.112.568c.199 115.917 91.939 210.97 207.776 215.28h.296a8 8 0 007.992-7.696z"/><path d="M323.48 108.52a8 8 0 00-11.312 0L226.2 194.48a25.055 25.055 0 00-20.408 0l-40.704-40.704a8 8 0 00-11.312 11.312l40.624 40.624c-5.704 11.94-.648 26.244 11.293 31.947a23.96 23.96 0 0027.275-4.683 23.737 23.737 0 004.624-27.256l85.888-85.888a8 8 0 000-11.312zM221.658 221.654l-.002.002a8.185 8.185 0 01-11.312 0 8 8 0 1111.314-.002z"/></svg><svg viewBox="0 0 21.33 32" id="arrow-right"><path d="M0 28.29A3.87 3.87 0 004 32a4.22 4.22 0 002.29-.67s.47-.4 1.24-1.09L20.71 18a3.46 3.46 0 00.62-2 3.4 3.4 0 00-.44-1.68L6.16.59A4.16 4.16 0 004 0a3.82 3.82 0 00-4 3.66 3.33 3.33 0 00.5 1.68.46.46 0 00.13.18L11.88 16 .37 26.72A3.58 3.58 0 000 28.29z"/></svg><svg fill="currentColor" class="cbi cbi-list" viewBox="0 0 16 16" id="burger" xmlns="http://www.w3.org/2000/svg"><path fill-rule="evenodd" d="M2.5 11.5A.5.5 0 013 11h10a.5.5 0 010 1H3a.5.5 0 01-.5-.5zm0-4A.5.5 0 013 7h10a.5.5 0 010 1H3a.5.5 0 01-.5-.5zm0-4A.5.5 0 013 3h10a.5.5 0 010 1H3a.5.5 0 01-.5-.5z"/></svg><svg fill="currentColor" class="dbi dbi-cart2" viewBox="0 0 16 16" id="cart" xmlns="http://www.w3.org/2000/svg"><path d="M0 2.5A.5.5 0 01.5 2H2a.5.5 0 01.485.379L2.89 4H14.5a.5.5 0 01.485.621l-1.5 6A.5.5 0 0113 11H4a.5.5 0 01-.485-.379L1.61 3H.5a.5.5 0 01-.5-.5zM3.14 5l1.25 5h8.22l1.25-5H3.14zM5 13a1 1 0 100 2 1 1 0 000-2zm-2 1a2 2 0 114 0 2 2 0 01-4 0zm9-1a1 1 0 100 2 1 1 0 000-2zm-2 1a2 2 0 114 0 2 2 0 01-4 0z"/></svg><svg viewBox="0 0 512 512" id="delivery" xmlns="http://www.w3.org/2000/svg"><path d="M386.689 304.403c-35.587 0-64.538 28.951-64.538 64.538s28.951 64.538 64.538 64.538c35.593 0 64.538-28.951 64.538-64.538s-28.951-64.538-64.538-64.538zm0 96.807c-17.796 0-32.269-14.473-32.269-32.269s14.473-32.269 32.269-32.269 32.269 14.473 32.269 32.269c0 17.797-14.473 32.269-32.269 32.269zM166.185 304.403c-35.587 0-64.538 28.951-64.538 64.538s28.951 64.538 64.538 64.538 64.538-28.951 64.538-64.538-28.951-64.538-64.538-64.538zm0 96.807c-17.796 0-32.269-14.473-32.269-32.269s14.473-32.269 32.269-32.269c17.791 0 32.269 14.473 32.269 32.269 0 17.797-14.473 32.269-32.269 32.269zM430.15 119.675a16.143 16.143 0 00-14.419-8.885h-84.975v32.269h75.025l43.934 87.384 28.838-14.5-48.403-96.268z"/><path d="M216.202 353.345h122.084v32.269H216.202zM117.781 353.345H61.849c-8.912 0-16.134 7.223-16.134 16.134 0 8.912 7.223 16.134 16.134 16.134h55.933c8.912 0 16.134-7.223 16.134-16.134 0-8.912-7.223-16.134-16.135-16.134zM508.612 254.709l-31.736-40.874a16.112 16.112 0 00-12.741-6.239H346.891V94.655c0-8.912-7.223-16.134-16.134-16.134H61.849c-8.912 0-16.134 7.223-16.134 16.134s7.223 16.134 16.134 16.134h252.773V223.73c0 8.912 7.223 16.134 16.134 16.134h125.478l23.497 30.268v83.211h-44.639c-8.912 0-16.134 7.223-16.134 16.134 0 8.912 7.223 16.134 16.134 16.134h60.773c8.912 0 16.134-7.223 16.135-16.134V264.605c0-3.582-1.194-7.067-3.388-9.896zM116.706 271.597H42.487c-8.912 0-16.134 7.223-16.134 16.134 0 8.912 7.223 16.134 16.134 16.134h74.218c8.912 0 16.134-7.223 16.134-16.134.001-8.911-7.222-16.134-16.133-16.134zM153.815 208.134H16.134C7.223 208.134 0 215.357 0 224.269s7.223 16.134 16.134 16.134h137.681c8.912 0 16.134-7.223 16.134-16.134s-7.222-16.135-16.134-16.135z"/><path d="M180.168 144.672H42.487c-8.912 0-16.134 7.223-16.134 16.134 0 8.912 7.223 16.134 16.134 16.134h137.681c8.912 0 16.134-7.223 16.134-16.134.001-8.911-7.222-16.134-16.134-16.134z"/></svg><svg fill="currentColor" class="fbi fbi-percent" viewBox="0 0 16 16" id="percent" xmlns="http://www.w3.org/2000/svg"><path d="M13.442 2.558a.625.625 0 010 .884l-10 10a.625.625 0 11-.884-.884l10-10a.625.625 0 01.884 0zM4.5 6a1.5 1.5 0 110-3 1.5 1.5 0 010 3zm0 1a2.5 2.5 0 100-5 2.5 2.5 0 000 5zm7 6a1.5 1.5 0 110-3 1.5 1.5 0 010 3zm0 1a2.5 2.5 0 100-5 2.5 2.5 0 000 5z"/></svg><svg class="gbi gbi-person-fill" viewBox="0 0 16 16" id="person-fill" xmlns="http://www.w3.org/2000/svg"><path d="M3 14s-1 0-1-1 1-4 6-4 6 3 6 4-1 1-1 1H3zm5-6a3 3 0 100-6 3 3 0 000 6z"/></svg><svg fill="currentColor" class="hbi hbi-search" viewBox="0 0 16 16" id="search" xmlns="http://www.w3.org/2000/svg"><path d="M11.742 10.344a6.5 6.5 0 10-1.397 1.398h-.001c.03.04.062.078.098.115l3.85 3.85a1 1 0 001.415-1.414l-3.85-3.85a1.007 1.007 0 00-.115-.1zM12 6.5a5.5 5.5 0 11-11 0 5.5 5.5 0 0111 0z"/></svg><svg viewBox="0 0 512 512" id="settings" xmlns="http://www.w3.org/2000/svg"><path d="M438.973 411.718c-14.598 0-26.475 11.876-26.475 26.475 0 14.598 11.876 26.474 26.475 26.474 14.598 0 26.474-11.876 26.474-26.474s-11.876-26.475-26.474-26.475zm-.001 37.259c-5.946 0-10.784-4.838-10.784-10.784 0-5.946 4.838-10.784 10.784-10.784 5.946 0 10.784 4.838 10.784 10.784s-4.838 10.784-10.784 10.784z"/><path d="M510.303 436.82c-.5-19.383-8.704-37.211-23.102-50.198L329.249 244.157l139.658-139.658a14.816 14.816 0 002.7-1.077L501.85 87.46c4.178-2.206 6.98-6.152 7.685-10.823.706-4.672-.805-9.268-4.146-12.612l-34.052-34.051c-3.342-3.341-7.935-4.852-12.611-4.146-4.671.705-8.616 3.507-10.823 7.686L431.94 63.755a14.882 14.882 0 00-1.099 2.723l-65.92 65.92a7.846 7.846 0 0011.096 11.096l60.492-60.493 15.853 15.853-154.7 154.7-15.853-15.853 67.525-67.524a7.846 7.846 0 00-11.096-11.096l-48.994 48.994-53.322-48.094a120.384 120.384 0 00-28.625-124.725C173.706 1.665 123.314-9.04 78.916 7.987a7.844 7.844 0 00-2.738 12.873l61.592 61.593a9.586 9.586 0 012.827 6.822c0 2.577-1.004 5-2.827 6.823l-39.999 39.999a9.582 9.582 0 01-6.822 2.827c-2.577 0-5-1.003-6.823-2.827L22.533 74.504A7.847 7.847 0 009.66 77.242c-17.027 44.396-6.322 94.788 27.27 128.381 31.991 31.99 79.468 43.253 122.299 29.414l41.227 45.083a42.275 42.275 0 01-7.734 10.658c-11.884 11.884-29.695 15.628-45.38 9.54a7.842 7.842 0 00-8.388 1.765l-96.059 96.059c-26.004 26.005-26.004 68.317 0 94.32C55.494 505.063 72.243 512 90.058 512c17.814 0 34.564-6.937 47.161-19.534l96.059-96.058a7.847 7.847 0 001.765-8.388c-6.089-15.684-2.345-33.497 9.538-45.381 11.886-11.884 29.698-15.628 45.382-9.54a7.844 7.844 0 008.388-1.765l18.12-18.12c5.456-5.456 8.46-12.711 8.46-20.426 0-7.715-3.004-14.97-8.46-20.426l-7.713-7.713 9.383-9.383 158.552 143.007c11.172 10.077 17.539 23.911 17.926 38.951.387 15.04-5.259 29.183-15.898 39.821-10.588 10.59-24.695 16.226-39.636 15.903-14.971-.334-28.781-6.604-38.886-17.655L282.31 346.378a7.846 7.846 0 00-11.579 10.589l117.888 128.915c13.024 14.241 30.822 22.321 50.115 22.752.54.012 1.079.018 1.618.018 18.688 0 36.199-7.249 49.464-20.512 13.71-13.711 20.985-31.937 20.487-51.32zM446.149 70.45l15.019-28.454 32.199 32.199-28.454 15.019-18.764-18.764zM167.324 220.639a7.847 7.847 0 00-8.532-2.056c-38.363 14.31-81.845 4.868-110.768-24.052-26.262-26.263-36.438-64.337-27.471-99.815l52.477 52.477c4.787 4.786 11.15 7.421 17.918 7.421s13.131-2.635 17.917-7.421l39.999-39.999c4.786-4.787 7.421-11.15 7.421-17.918s-2.635-13.131-7.421-17.917L96.388 18.88c35.475-8.971 73.553 1.208 99.814 27.471 29.659 29.657 38.773 74.003 23.222 112.978a7.843 7.843 0 002.032 8.733l56.679 51.122-7.422 7.422-7.713-7.713c-5.456-5.456-12.711-8.46-20.426-8.46-7.715 0-14.97 3.004-20.426 8.46l-18.12 18.12a7.847 7.847 0 00-1.765 8.388c2.087 5.375 2.992 10.997 2.837 16.548l-37.776-41.31zm138.05 81.48l-14.682 14.683c-20.192-5.821-42.164-.299-57.205 14.741h-.001c-15.04 15.041-20.563 37.01-14.74 57.206l-92.622 92.62c-9.634 9.634-22.442 14.94-36.065 14.94s-26.433-5.306-36.065-14.94c-19.887-19.886-19.887-52.244 0-72.131l92.621-92.621c20.194 5.824 42.163.298 57.205-14.742 15.04-15.041 20.564-37.01 14.741-57.205l14.683-14.682c5.144-5.146 13.517-5.146 18.661 0l13.261 13.261 26.947 26.947 13.261 13.261c5.146 5.146 5.146 13.518 0 18.662z"/><path d="M162.326 346.249a7.848 7.848 0 00-11.096 0l-74.318 74.318a7.846 7.846 0 0011.096 11.096l74.318-74.318a7.848 7.848 0 000-11.096zM189.785 373.708a7.848 7.848 0 00-11.096 0l-74.318 74.317a7.846 7.846 0 0011.096 11.096l74.318-74.317a7.846 7.846 0 000-11.096z"/></svg><svg class="jbi jbi-telephone-fill" viewBox="0 0 16 16" id="telephone-fill" xmlns="http://www.w3.org/2000/svg"><path fill-rule="evenodd" d="M1.885.511a1.745 1.745 0 012.61.163L6.29 2.98c.329.423.445.974.315 1.494l-.547 2.19a.678.678 0 00.178.643l2.457 2.457a.678.678 0 00.644.178l2.189-.547a1.745 1.745 0 011.494.315l2.306 1.794c.829.645.905 1.87.163 2.611l-1.034 1.034c-.74.74-1.846 1.065-2.877.702a18.634 18.634 0 01-7.01-4.42 18.634 18.634 0 01-4.42-7.009c-.362-1.03-.037-2.137.703-2.877L1.885.511z"/></svg><svg viewBox="0 0 512 512" id="warehouse" xmlns="http://www.w3.org/2000/svg"><path d="M507.785 146.242L260.318 1.175a8.53 8.53 0 00-8.439-.111L4.412 137.598A8.516 8.516 0 000 145.064v358.4a8.53 8.53 0 008.533 8.533H51.2a8.53 8.53 0 008.533-8.533V204.798h392.533v298.667a8.525 8.525 0 008.533 8.533h42.667a8.525 8.525 0 008.533-8.533V153.598a8.515 8.515 0 00-4.214-7.356zm-12.852 348.689h-25.6V196.264a8.53 8.53 0 00-8.533-8.533H51.2a8.536 8.536 0 00-8.533 8.533v298.667h-25.6V150.099L255.872 18.344l239.061 140.143v336.444z"/><path d="M426.667 392.531h-102.4a8.525 8.525 0 00-8.533 8.533v102.4a8.525 8.525 0 008.533 8.533h102.4a8.525 8.525 0 008.533-8.533v-102.4a8.525 8.525 0 00-8.533-8.533zm-8.534 102.4H332.8v-85.333h85.333v85.333z"/><path d="M384 401.064v25.6h-17.067v-25.6h-17.067v34.133a8.525 8.525 0 008.533 8.533h34.133a8.525 8.525 0 008.533-8.533v-34.133H384zM324.267 392.531h-102.4a8.53 8.53 0 00-8.533 8.533v102.4a8.53 8.53 0 008.533 8.533h102.4a8.525 8.525 0 008.533-8.533v-102.4a8.525 8.525 0 00-8.533-8.533zm-8.534 102.4H230.4v-85.333h85.333v85.333z"/><path d="M281.6 401.064v25.6h-17.067v-25.6h-17.067v34.133a8.53 8.53 0 008.533 8.533h34.133a8.525 8.525 0 008.533-8.533v-34.133H281.6zM426.667 290.131h-102.4a8.525 8.525 0 00-8.533 8.533v102.4a8.525 8.525 0 008.533 8.533h102.4a8.525 8.525 0 008.533-8.533v-102.4a8.525 8.525 0 00-8.533-8.533zm-8.534 102.4H332.8v-85.333h85.333v85.333z"/><path d="M384 298.664v25.6h-17.067v-25.6h-17.067v34.133a8.525 8.525 0 008.533 8.533h34.133a8.525 8.525 0 008.533-8.533v-34.133H384zM51.2 255.998h409.6v17.067H51.2zM51.2 221.864h409.6v17.067H51.2zM298.667 119.464h-85.333a8.536 8.536 0 00-8.533 8.533v34.133a8.536 8.536 0 008.533 8.533h85.333a8.53 8.53 0 008.533-8.533v-34.133a8.53 8.53 0 00-8.533-8.533zm-8.534 34.134h-68.267v-17.067h68.267v17.067z"/></svg></svg>